# xmcd
#
# Track frame offsets:
#	150
#	19987
#	39844
#	51614
#	69340
#	82678
#	97932
#
# Disc length: 1510 seconds
#
# Revision: 1
# Processed by: cddbd v1.4PL0 Copyright (c) Steve Scherf et al.
# Submitted via: EasyCDDAExtractor 5.1.0
#
DISCID=4b05e407
DTITLE=Jennifer Fitts - Pleasant Detour
DYEAR=2001
DGENRE=country
TTITLE0=Pleasant Detour
TTITLE1=Southern Comfort
TTITLE2=It Was Only The Wine
TTITLE3=Time I Stopped Lyin'
TTITLE4=Just Like A Country Song (Jimmy Dean's Song)
TTITLE5=Everything He Said
TTITLE6=It Feels Like You're Still Here
EXTD=
EXTT0=
EXTT1=
EXTT2=
EXTT3=
EXTT4=
EXTT5=
EXTT6=
PLAYORDER=
